<mxfile host="drawio-plugin" modified="2022-08-18T10:42:26.691Z" agent="5.0 (Windows NT 6.2; Win64; x64) AppleWebKit/537.36 (KHTML, like Gecko) Chrome/98.0.4758.102 Safari/537.36" etag="Qf2JgZlfsFQtTHXAjhCo" version="15.5.4" type="embed"><diagram id="S2ypeOvvycpNAgAjA3mA" name="Page-1"><mxGraphModel dx="953" dy="735" grid="1" gridSize="10" guides="1" tooltips="1" connect="1" arrows="1" fold="1" page="1" pageScale="1" pageWidth="827" pageHeight="1169" math="0" shadow="0"><root><mxCell id="0"/><mxCell id="1" parent="0"/><mxCell id="57" style="edgeStyle=orthogonalEdgeStyle;rounded=0;orthogonalLoop=1;jettySize=auto;html=1;entryX=0;entryY=0.25;entryDx=0;entryDy=0;endArrow=none;endFill=0;" parent="1" source="vUMNLVF5anmC9w9eSEwW-13" target="15" edge="1"><mxGeometry relative="1" as="geometry"><Array as="points"><mxPoint x="190" y="426"/><mxPoint x="190" y="426"/></Array></mxGeometry></mxCell><mxCell id="vUMNLVF5anmC9w9eSEwW-13" value="Order" style="swimlane;fontStyle=0;childLayout=stackLayout;horizontal=1;startSize=26;fillColor=none;horizontalStack=0;resizeParent=1;resizeParentMax=0;resizeLast=0;collapsible=1;marginBottom=0;" parent="1" vertex="1"><mxGeometry x="10" y="280" width="150" height="182" as="geometry"/></mxCell><mxCell id="vUMNLVF5anmC9w9eSEwW-14" value="Order ID" style="text;strokeColor=none;fillColor=none;align=left;verticalAlign=top;spacingLeft=4;spacingRight=4;overflow=hidden;rotatable=0;points=[[0,0.5],[1,0.5]];portConstraint=eastwest;" parent="vUMNLVF5anmC9w9eSEwW-13" vertex="1"><mxGeometry y="26" width="150" height="26" as="geometry"/></mxCell><mxCell id="vUMNLVF5anmC9w9eSEwW-15" value="/Total price" style="text;strokeColor=none;fillColor=none;align=left;verticalAlign=top;spacingLeft=4;spacingRight=4;overflow=hidden;rotatable=0;points=[[0,0.5],[1,0.5]];portConstraint=eastwest;" parent="vUMNLVF5anmC9w9eSEwW-13" vertex="1"><mxGeometry y="52" width="150" height="26" as="geometry"/></mxCell><mxCell id="vUMNLVF5anmC9w9eSEwW-18" value="Date/Time ordered" style="text;strokeColor=none;fillColor=none;align=left;verticalAlign=top;spacingLeft=4;spacingRight=4;overflow=hidden;rotatable=0;points=[[0,0.5],[1,0.5]];portConstraint=eastwest;" parent="vUMNLVF5anmC9w9eSEwW-13" vertex="1"><mxGeometry y="78" width="150" height="26" as="geometry"/></mxCell><mxCell id="KycJKE3FsNJFsC_Osg_b-42" value="Note " style="text;strokeColor=none;fillColor=none;align=left;verticalAlign=top;spacingLeft=4;spacingRight=4;overflow=hidden;rotatable=0;points=[[0,0.5],[1,0.5]];portConstraint=eastwest;" parent="vUMNLVF5anmC9w9eSEwW-13" vertex="1"><mxGeometry y="104" width="150" height="26" as="geometry"/></mxCell><mxCell id="vUMNLVF5anmC9w9eSEwW-20" value="Order Status" style="text;strokeColor=none;fillColor=none;align=left;verticalAlign=top;spacingLeft=4;spacingRight=4;overflow=hidden;rotatable=0;points=[[0,0.5],[1,0.5]];portConstraint=eastwest;" parent="vUMNLVF5anmC9w9eSEwW-13" vertex="1"><mxGeometry y="130" width="150" height="26" as="geometry"/></mxCell><mxCell id="KycJKE3FsNJFsC_Osg_b-13" value="Contact Number" style="text;strokeColor=none;fillColor=none;align=left;verticalAlign=top;spacingLeft=4;spacingRight=4;overflow=hidden;rotatable=0;points=[[0,0.5],[1,0.5]];portConstraint=eastwest;" parent="vUMNLVF5anmC9w9eSEwW-13" vertex="1"><mxGeometry y="156" width="150" height="26" as="geometry"/></mxCell><mxCell id="KycJKE3FsNJFsC_Osg_b-27" style="edgeStyle=orthogonalEdgeStyle;rounded=0;orthogonalLoop=1;jettySize=auto;html=1;entryX=0.5;entryY=1;entryDx=0;entryDy=0;endArrow=none;endFill=0;" parent="1" source="vUMNLVF5anmC9w9eSEwW-13" target="KycJKE3FsNJFsC_Osg_b-18" edge="1"><mxGeometry relative="1" as="geometry"><Array as="points"><mxPoint x="105" y="200"/><mxPoint x="225" y="200"/></Array><mxPoint x="105" y="400.9999999999999" as="sourcePoint"/></mxGeometry></mxCell><mxCell id="43" style="edgeStyle=orthogonalEdgeStyle;rounded=0;orthogonalLoop=1;jettySize=auto;html=1;endArrow=none;endFill=0;" parent="1" source="vUMNLVF5anmC9w9eSEwW-26" target="KycJKE3FsNJFsC_Osg_b-18" edge="1"><mxGeometry relative="1" as="geometry"><Array as="points"><mxPoint x="360" y="180"/><mxPoint x="360" y="180"/></Array></mxGeometry></mxCell><mxCell id="84" style="edgeStyle=orthogonalEdgeStyle;rounded=0;orthogonalLoop=1;jettySize=auto;html=1;fontColor=#FFFFFF;endArrow=none;endFill=0;" parent="1" source="vUMNLVF5anmC9w9eSEwW-26" target="vUMNLVF5anmC9w9eSEwW-13" edge="1"><mxGeometry relative="1" as="geometry"><Array as="points"><mxPoint x="643" y="110"/><mxPoint x="65" y="110"/></Array></mxGeometry></mxCell><mxCell id="87" style="edgeStyle=orthogonalEdgeStyle;rounded=0;orthogonalLoop=1;jettySize=auto;html=1;endArrow=none;endFill=0;" parent="1" source="vUMNLVF5anmC9w9eSEwW-26" target="vUMNLVF5anmC9w9eSEwW-40" edge="1"><mxGeometry relative="1" as="geometry"><Array as="points"><mxPoint x="750" y="180"/><mxPoint x="750" y="380"/><mxPoint x="360" y="380"/></Array></mxGeometry></mxCell><mxCell id="89" style="edgeStyle=orthogonalEdgeStyle;rounded=0;orthogonalLoop=1;jettySize=auto;html=1;entryX=0.867;entryY=0.039;entryDx=0;entryDy=0;entryPerimeter=0;endArrow=none;endFill=0;" parent="1" source="vUMNLVF5anmC9w9eSEwW-26" target="vUMNLVF5anmC9w9eSEwW-35" edge="1"><mxGeometry relative="1" as="geometry"><Array as="points"><mxPoint x="534" y="210"/></Array></mxGeometry></mxCell><mxCell id="vUMNLVF5anmC9w9eSEwW-26" value="Stuff" style="swimlane;fontStyle=0;childLayout=stackLayout;horizontal=1;startSize=26;fillColor=none;horizontalStack=0;resizeParent=1;resizeParentMax=0;resizeLast=0;collapsible=1;marginBottom=0;" parent="1" vertex="1"><mxGeometry x="580" y="130" width="125" height="100" as="geometry"/></mxCell><mxCell id="vUMNLVF5anmC9w9eSEwW-27" value="Stuff ID" style="text;strokeColor=none;fillColor=none;align=left;verticalAlign=top;spacingLeft=4;spacingRight=4;overflow=hidden;rotatable=0;points=[[0,0.5],[1,0.5]];portConstraint=eastwest;" parent="vUMNLVF5anmC9w9eSEwW-26" vertex="1"><mxGeometry y="26" width="125" height="22" as="geometry"/></mxCell><mxCell id="9l4VpIScvD9xsvnCj6-5-21" value="UserName" style="text;strokeColor=none;fillColor=none;align=left;verticalAlign=top;spacingLeft=4;spacingRight=4;overflow=hidden;rotatable=0;points=[[0,0.5],[1,0.5]];portConstraint=eastwest;" parent="vUMNLVF5anmC9w9eSEwW-26" vertex="1"><mxGeometry y="48" width="125" height="26" as="geometry"/></mxCell><mxCell id="vUMNLVF5anmC9w9eSEwW-28" value="Password" style="text;strokeColor=none;fillColor=none;align=left;verticalAlign=top;spacingLeft=4;spacingRight=4;overflow=hidden;rotatable=0;points=[[0,0.5],[1,0.5]];portConstraint=eastwest;" parent="vUMNLVF5anmC9w9eSEwW-26" vertex="1"><mxGeometry y="74" width="125" height="26" as="geometry"/></mxCell><mxCell id="vUMNLVF5anmC9w9eSEwW-35" value="Inventory" style="html=1;" parent="1" vertex="1"><mxGeometry x="455" y="280" width="120" height="51" as="geometry"/></mxCell><mxCell id="42" style="edgeStyle=orthogonalEdgeStyle;rounded=0;orthogonalLoop=1;jettySize=auto;html=1;endArrow=none;endFill=0;" parent="1" source="vUMNLVF5anmC9w9eSEwW-36" target="vUMNLVF5anmC9w9eSEwW-35" edge="1"><mxGeometry relative="1" as="geometry"><Array as="points"><mxPoint x="780" y="858"/><mxPoint x="780" y="306"/></Array></mxGeometry></mxCell><mxCell id="vUMNLVF5anmC9w9eSEwW-36" value="Ingredients" style="swimlane;fontStyle=0;childLayout=stackLayout;horizontal=1;startSize=26;fillColor=none;horizontalStack=0;resizeParent=1;resizeParentMax=0;resizeLast=0;collapsible=1;marginBottom=0;" parent="1" vertex="1"><mxGeometry x="500" y="806" width="120" height="104" as="geometry"/></mxCell><mxCell id="vUMNLVF5anmC9w9eSEwW-37" value="Ingredient name" style="text;strokeColor=none;fillColor=none;align=left;verticalAlign=top;spacingLeft=4;spacingRight=4;overflow=hidden;rotatable=0;points=[[0,0.5],[1,0.5]];portConstraint=eastwest;" parent="vUMNLVF5anmC9w9eSEwW-36" vertex="1"><mxGeometry y="26" width="120" height="26" as="geometry"/></mxCell><mxCell id="vUMNLVF5anmC9w9eSEwW-38" value="Price" style="text;strokeColor=none;fillColor=none;align=left;verticalAlign=top;spacingLeft=4;spacingRight=4;overflow=hidden;rotatable=0;points=[[0,0.5],[1,0.5]];portConstraint=eastwest;" parent="vUMNLVF5anmC9w9eSEwW-36" vertex="1"><mxGeometry y="52" width="120" height="26" as="geometry"/></mxCell><mxCell id="vUMNLVF5anmC9w9eSEwW-39" value="Quanlity (g)" style="text;strokeColor=none;fillColor=none;align=left;verticalAlign=top;spacingLeft=4;spacingRight=4;overflow=hidden;rotatable=0;points=[[0,0.5],[1,0.5]];portConstraint=eastwest;" parent="vUMNLVF5anmC9w9eSEwW-36" vertex="1"><mxGeometry y="78" width="120" height="26" as="geometry"/></mxCell><mxCell id="29" style="edgeStyle=orthogonalEdgeStyle;rounded=0;orthogonalLoop=1;jettySize=auto;html=1;endArrow=none;endFill=0;" parent="1" source="vUMNLVF5anmC9w9eSEwW-40" target="15" edge="1"><mxGeometry relative="1" as="geometry"/></mxCell><mxCell id="vUMNLVF5anmC9w9eSEwW-40" value="Menu" style="html=1;" parent="1" vertex="1"><mxGeometry x="280" y="280" width="110" height="50" as="geometry"/></mxCell><mxCell id="34" style="edgeStyle=orthogonalEdgeStyle;rounded=0;orthogonalLoop=1;jettySize=auto;html=1;endArrow=block;endFill=0;" parent="1" source="vUMNLVF5anmC9w9eSEwW-41" edge="1"><mxGeometry relative="1" as="geometry"><mxPoint x="335" y="510" as="targetPoint"/><Array as="points"><mxPoint x="200" y="540"/><mxPoint x="335" y="540"/></Array></mxGeometry></mxCell><mxCell id="49" style="edgeStyle=orthogonalEdgeStyle;rounded=0;orthogonalLoop=1;jettySize=auto;html=1;endArrow=none;endFill=0;" parent="1" source="vUMNLVF5anmC9w9eSEwW-41" target="vUMNLVF5anmC9w9eSEwW-36" edge="1"><mxGeometry relative="1" as="geometry"><Array as="points"><mxPoint x="200" y="858"/></Array></mxGeometry></mxCell><mxCell id="vUMNLVF5anmC9w9eSEwW-41" value="Beef Dish" style="swimlane;fontStyle=0;childLayout=stackLayout;horizontal=1;startSize=26;fillColor=none;horizontalStack=0;resizeParent=1;resizeParentMax=0;resizeLast=0;collapsible=1;marginBottom=0;" parent="1" vertex="1"><mxGeometry x="120" y="600" width="140" height="52" as="geometry"/></mxCell><mxCell id="vUMNLVF5anmC9w9eSEwW-43" value="Availability " style="text;strokeColor=none;fillColor=none;align=left;verticalAlign=top;spacingLeft=4;spacingRight=4;overflow=hidden;rotatable=0;points=[[0,0.5],[1,0.5]];portConstraint=eastwest;" parent="vUMNLVF5anmC9w9eSEwW-41" vertex="1"><mxGeometry y="26" width="140" height="26" as="geometry"/></mxCell><mxCell id="33" style="edgeStyle=orthogonalEdgeStyle;rounded=0;orthogonalLoop=1;jettySize=auto;html=1;endArrow=block;endFill=0;" parent="1" source="vUMNLVF5anmC9w9eSEwW-54" target="15" edge="1"><mxGeometry relative="1" as="geometry"><Array as="points"><mxPoint x="70" y="540"/><mxPoint x="335" y="540"/></Array></mxGeometry></mxCell><mxCell id="vUMNLVF5anmC9w9eSEwW-54" value="Drink" style="swimlane;fontStyle=0;childLayout=stackLayout;horizontal=1;startSize=26;fillColor=none;horizontalStack=0;resizeParent=1;resizeParentMax=0;resizeLast=0;collapsible=1;marginBottom=0;" parent="1" vertex="1"><mxGeometry x="10" y="680" width="140" height="52" as="geometry"/></mxCell><mxCell id="vUMNLVF5anmC9w9eSEwW-55" value="Quanlity" style="text;strokeColor=none;fillColor=none;align=left;verticalAlign=top;spacingLeft=4;spacingRight=4;overflow=hidden;rotatable=0;points=[[0,0.5],[1,0.5]];portConstraint=eastwest;" parent="vUMNLVF5anmC9w9eSEwW-54" vertex="1"><mxGeometry y="26" width="140" height="26" as="geometry"/></mxCell><mxCell id="26" style="edgeStyle=orthogonalEdgeStyle;rounded=0;orthogonalLoop=1;jettySize=auto;html=1;endArrow=none;endFill=0;" parent="1" source="KycJKE3FsNJFsC_Osg_b-18" target="vUMNLVF5anmC9w9eSEwW-40" edge="1"><mxGeometry relative="1" as="geometry"/></mxCell><mxCell id="30" style="edgeStyle=orthogonalEdgeStyle;rounded=0;orthogonalLoop=1;jettySize=auto;html=1;endArrow=none;endFill=0;" parent="1" source="KycJKE3FsNJFsC_Osg_b-18" target="vUMNLVF5anmC9w9eSEwW-35" edge="1"><mxGeometry relative="1" as="geometry"><Array as="points"><mxPoint x="490" y="200"/></Array></mxGeometry></mxCell><mxCell id="KycJKE3FsNJFsC_Osg_b-18" value="Restaurant" style="html=1;" parent="1" vertex="1"><mxGeometry x="180" y="165" width="110" height="50" as="geometry"/></mxCell><mxCell id="KycJKE3FsNJFsC_Osg_b-32" value="1" style="text;html=1;align=center;verticalAlign=middle;resizable=0;points=[];autosize=1;" parent="1" vertex="1"><mxGeometry x="309" y="260" width="20" height="20" as="geometry"/></mxCell><mxCell id="KycJKE3FsNJFsC_Osg_b-44" value="*" style="text;html=1;align=center;verticalAlign=middle;resizable=0;points=[];autosize=1;" parent="1" vertex="1"><mxGeometry x="690" y="660" width="20" height="20" as="geometry"/></mxCell><mxCell id="9l4VpIScvD9xsvnCj6-5-10" value="works at" style="text;html=1;strokeColor=none;fillColor=none;align=center;verticalAlign=middle;whiteSpace=wrap;rounded=0;" parent="1" vertex="1"><mxGeometry x="405" y="160" width="60" height="20" as="geometry"/></mxCell><mxCell id="9l4VpIScvD9xsvnCj6-5-11" value="Manage" style="text;html=1;strokeColor=none;fillColor=none;align=center;verticalAlign=middle;whiteSpace=wrap;rounded=0;" parent="1" vertex="1"><mxGeometry x="545" y="235" width="40" height="20" as="geometry"/></mxCell><mxCell id="3" value="1" style="text;html=1;align=center;verticalAlign=middle;resizable=0;points=[];autosize=1;" parent="1" vertex="1"><mxGeometry x="150" y="180" width="20" height="20" as="geometry"/></mxCell><mxCell id="4" value="*" style="text;html=1;align=center;verticalAlign=middle;resizable=0;points=[];autosize=1;" parent="1" vertex="1"><mxGeometry x="90" y="255" width="20" height="20" as="geometry"/></mxCell><mxCell id="5" value="1" style="text;html=1;align=center;verticalAlign=middle;resizable=0;points=[];autosize=1;" parent="1" vertex="1"><mxGeometry x="245" y="215" width="20" height="20" as="geometry"/></mxCell><mxCell id="15" value="Item" style="swimlane;fontStyle=0;childLayout=stackLayout;horizontal=1;startSize=26;fillColor=none;horizontalStack=0;resizeParent=1;resizeParentMax=0;resizeLast=0;collapsible=1;marginBottom=0;" parent="1" vertex="1"><mxGeometry x="265" y="400" width="140" height="110" as="geometry"/></mxCell><mxCell id="16" value="Name" style="text;strokeColor=none;fillColor=none;align=left;verticalAlign=top;spacingLeft=4;spacingRight=4;overflow=hidden;rotatable=0;points=[[0,0.5],[1,0.5]];portConstraint=eastwest;" parent="15" vertex="1"><mxGeometry y="26" width="140" height="26" as="geometry"/></mxCell><mxCell id="75" value="Picture" style="text;strokeColor=none;fillColor=none;align=left;verticalAlign=top;spacingLeft=4;spacingRight=4;overflow=hidden;rotatable=0;points=[[0,0.5],[1,0.5]];portConstraint=eastwest;" parent="15" vertex="1"><mxGeometry y="52" width="140" height="26" as="geometry"/></mxCell><mxCell id="17" value="Price" style="text;strokeColor=none;fillColor=none;align=left;verticalAlign=top;spacingLeft=4;spacingRight=4;overflow=hidden;rotatable=0;points=[[0,0.5],[1,0.5]];portConstraint=eastwest;" parent="15" vertex="1"><mxGeometry y="78" width="140" height="32" as="geometry"/></mxCell><mxCell id="35" style="edgeStyle=orthogonalEdgeStyle;rounded=0;orthogonalLoop=1;jettySize=auto;html=1;entryX=0.5;entryY=1;entryDx=0;entryDy=0;endArrow=block;endFill=0;" parent="1" source="19" target="15" edge="1"><mxGeometry relative="1" as="geometry"><Array as="points"><mxPoint x="335" y="570"/><mxPoint x="335" y="570"/></Array></mxGeometry></mxCell><mxCell id="50" style="edgeStyle=orthogonalEdgeStyle;rounded=0;orthogonalLoop=1;jettySize=auto;html=1;endArrow=none;endFill=0;" parent="1" source="19" target="vUMNLVF5anmC9w9eSEwW-36" edge="1"><mxGeometry relative="1" as="geometry"><Array as="points"><mxPoint x="340" y="740"/><mxPoint x="560" y="740"/></Array></mxGeometry></mxCell><mxCell id="19" value="Chicken Dish" style="swimlane;fontStyle=0;childLayout=stackLayout;horizontal=1;startSize=26;fillColor=none;horizontalStack=0;resizeParent=1;resizeParentMax=0;resizeLast=0;collapsible=1;marginBottom=0;" parent="1" vertex="1"><mxGeometry x="273.5" y="600" width="140" height="52" as="geometry"/></mxCell><mxCell id="20" value="Availability " style="text;strokeColor=none;fillColor=none;align=left;verticalAlign=top;spacingLeft=4;spacingRight=4;overflow=hidden;rotatable=0;points=[[0,0.5],[1,0.5]];portConstraint=eastwest;" parent="19" vertex="1"><mxGeometry y="26" width="140" height="26" as="geometry"/></mxCell><mxCell id="37" style="edgeStyle=orthogonalEdgeStyle;rounded=0;orthogonalLoop=1;jettySize=auto;html=1;endArrow=block;endFill=0;" parent="1" source="21" target="17" edge="1"><mxGeometry relative="1" as="geometry"><mxPoint x="335" y="510" as="targetPoint"/><Array as="points"><mxPoint x="670" y="540"/><mxPoint x="335" y="540"/></Array></mxGeometry></mxCell><mxCell id="52" style="edgeStyle=orthogonalEdgeStyle;rounded=0;orthogonalLoop=1;jettySize=auto;html=1;entryX=0.5;entryY=0;entryDx=0;entryDy=0;endArrow=none;endFill=0;" parent="1" source="21" target="vUMNLVF5anmC9w9eSEwW-36" edge="1"><mxGeometry relative="1" as="geometry"><Array as="points"><mxPoint x="680" y="740"/><mxPoint x="560" y="740"/></Array></mxGeometry></mxCell><mxCell id="21" value="Sides Dish" style="swimlane;fontStyle=0;childLayout=stackLayout;horizontal=1;startSize=26;fillColor=none;horizontalStack=0;resizeParent=1;resizeParentMax=0;resizeLast=0;collapsible=1;marginBottom=0;" parent="1" vertex="1"><mxGeometry x="600" y="600" width="140" height="52" as="geometry"/></mxCell><mxCell id="22" value="Availability " style="text;strokeColor=none;fillColor=none;align=left;verticalAlign=top;spacingLeft=4;spacingRight=4;overflow=hidden;rotatable=0;points=[[0,0.5],[1,0.5]];portConstraint=eastwest;" parent="21" vertex="1"><mxGeometry y="26" width="140" height="26" as="geometry"/></mxCell><mxCell id="36" style="edgeStyle=orthogonalEdgeStyle;rounded=0;orthogonalLoop=1;jettySize=auto;html=1;endArrow=block;endFill=0;" parent="1" source="23" target="15" edge="1"><mxGeometry relative="1" as="geometry"><Array as="points"><mxPoint x="505" y="540"/><mxPoint x="335" y="540"/></Array></mxGeometry></mxCell><mxCell id="51" style="edgeStyle=orthogonalEdgeStyle;rounded=0;orthogonalLoop=1;jettySize=auto;html=1;entryX=0.5;entryY=0;entryDx=0;entryDy=0;endArrow=none;endFill=0;" parent="1" source="23" target="vUMNLVF5anmC9w9eSEwW-36" edge="1"><mxGeometry relative="1" as="geometry"><Array as="points"><mxPoint x="505" y="740"/><mxPoint x="560" y="740"/></Array></mxGeometry></mxCell><mxCell id="23" value="Chips Dish" style="swimlane;fontStyle=0;childLayout=stackLayout;horizontal=1;startSize=26;fillColor=none;horizontalStack=0;resizeParent=1;resizeParentMax=0;resizeLast=0;collapsible=1;marginBottom=0;" parent="1" vertex="1"><mxGeometry x="435" y="600" width="140" height="52" as="geometry"/></mxCell><mxCell id="24" value="Availability " style="text;strokeColor=none;fillColor=none;align=left;verticalAlign=top;spacingLeft=4;spacingRight=4;overflow=hidden;rotatable=0;points=[[0,0.5],[1,0.5]];portConstraint=eastwest;" parent="23" vertex="1"><mxGeometry y="26" width="140" height="26" as="geometry"/></mxCell><mxCell id="55" value="Uses" style="text;align=center;fontStyle=1;verticalAlign=middle;spacingLeft=3;spacingRight=3;strokeColor=none;rotatable=0;points=[[0,0.5],[1,0.5]];portConstraint=eastwest;fillColor=none;" parent="1" vertex="1"><mxGeometry x="300" y="834" width="80" height="26" as="geometry"/></mxCell><mxCell id="56" value="Use" style="text;align=center;fontStyle=1;verticalAlign=middle;spacingLeft=3;spacingRight=3;strokeColor=none;rotatable=0;points=[[0,0.5],[1,0.5]];portConstraint=eastwest;fillColor=none;" parent="1" vertex="1"><mxGeometry x="560" y="764" width="80" height="26" as="geometry"/></mxCell><mxCell id="58" value="1" style="text;html=1;align=center;verticalAlign=middle;resizable=0;points=[];autosize=1;strokeColor=none;fillColor=none;" parent="1" vertex="1"><mxGeometry x="160" y="430" width="20" height="20" as="geometry"/></mxCell><mxCell id="59" value="*" style="text;html=1;align=center;verticalAlign=middle;resizable=0;points=[];autosize=1;strokeColor=none;fillColor=none;" parent="1" vertex="1"><mxGeometry x="245" y="430" width="20" height="20" as="geometry"/></mxCell><mxCell id="60" value="*" style="text;html=1;align=center;verticalAlign=middle;resizable=0;points=[];autosize=1;strokeColor=none;fillColor=none;" parent="1" vertex="1"><mxGeometry x="210" y="660" width="20" height="20" as="geometry"/></mxCell><mxCell id="61" value="*" style="text;html=1;align=center;verticalAlign=middle;resizable=0;points=[];autosize=1;strokeColor=none;fillColor=none;" parent="1" vertex="1"><mxGeometry x="350" y="660" width="20" height="20" as="geometry"/></mxCell><mxCell id="62" value="*" style="text;html=1;align=center;verticalAlign=middle;resizable=0;points=[];autosize=1;strokeColor=none;fillColor=none;" parent="1" vertex="1"><mxGeometry x="525" y="660" width="20" height="20" as="geometry"/></mxCell><mxCell id="63" value="*" style="text;html=1;align=center;verticalAlign=middle;resizable=0;points=[];autosize=1;strokeColor=none;fillColor=none;" parent="1" vertex="1"><mxGeometry x="540" y="780" width="20" height="20" as="geometry"/></mxCell><mxCell id="64" value="*" style="text;html=1;align=center;verticalAlign=middle;resizable=0;points=[];autosize=1;strokeColor=none;fillColor=none;" parent="1" vertex="1"><mxGeometry x="480" y="840" width="20" height="20" as="geometry"/></mxCell><mxCell id="65" value="1" style="text;html=1;align=center;verticalAlign=middle;resizable=0;points=[];autosize=1;strokeColor=none;fillColor=none;" parent="1" vertex="1"><mxGeometry x="315" y="331" width="20" height="20" as="geometry"/></mxCell><mxCell id="66" value="*" style="text;html=1;align=center;verticalAlign=middle;resizable=0;points=[];autosize=1;strokeColor=none;fillColor=none;" parent="1" vertex="1"><mxGeometry x="315" y="380" width="20" height="20" as="geometry"/></mxCell><mxCell id="67" value="1" style="text;html=1;align=center;verticalAlign=middle;resizable=0;points=[];autosize=1;strokeColor=none;fillColor=none;" parent="1" vertex="1"><mxGeometry x="300" y="200" width="20" height="20" as="geometry"/></mxCell><mxCell id="68" value="1" style="text;html=1;align=center;verticalAlign=middle;resizable=0;points=[];autosize=1;strokeColor=none;fillColor=none;" parent="1" vertex="1"><mxGeometry x="300" y="160" width="20" height="20" as="geometry"/></mxCell><mxCell id="69" value="1..*" style="text;html=1;align=center;verticalAlign=middle;resizable=0;points=[];autosize=1;strokeColor=none;fillColor=none;" parent="1" vertex="1"><mxGeometry x="545" y="160" width="30" height="20" as="geometry"/></mxCell><mxCell id="70" value="1" style="text;html=1;align=center;verticalAlign=middle;resizable=0;points=[];autosize=1;strokeColor=none;fillColor=none;" parent="1" vertex="1"><mxGeometry x="470" y="260" width="20" height="20" as="geometry"/></mxCell><mxCell id="71" value="1" style="text;html=1;align=center;verticalAlign=middle;resizable=0;points=[];autosize=1;strokeColor=none;fillColor=none;" parent="1" vertex="1"><mxGeometry x="575" y="290" width="20" height="20" as="geometry"/></mxCell><mxCell id="72" value="*" style="text;html=1;align=center;verticalAlign=middle;resizable=0;points=[];autosize=1;strokeColor=none;fillColor=none;" parent="1" vertex="1"><mxGeometry x="620" y="840" width="20" height="20" as="geometry"/></mxCell><mxCell id="73" value="1..*" style="text;html=1;align=center;verticalAlign=middle;resizable=0;points=[];autosize=1;strokeColor=none;fillColor=none;" parent="1" vertex="1"><mxGeometry x="550" y="185" width="30" height="20" as="geometry"/></mxCell><mxCell id="77" value="Stores" style="text;html=1;align=center;verticalAlign=middle;resizable=0;points=[];autosize=1;strokeColor=none;fillColor=none;" parent="1" vertex="1"><mxGeometry x="670" y="290" width="50" height="20" as="geometry"/></mxCell><mxCell id="79" value="maintains" style="text;html=1;align=center;verticalAlign=middle;resizable=0;points=[];autosize=1;strokeColor=none;fillColor=none;fontColor=#FFFFFF;" parent="1" vertex="1"><mxGeometry x="365" y="205" width="70" height="20" as="geometry"/></mxCell><mxCell id="81" value="offers for sale" style="text;html=1;align=center;verticalAlign=middle;resizable=0;points=[];autosize=1;strokeColor=none;fillColor=none;fontColor=#FFFFFF;" parent="1" vertex="1"><mxGeometry x="260" y="230" width="90" height="20" as="geometry"/></mxCell><mxCell id="82" value="Customer &lt;br&gt;place order" style="text;html=1;align=center;verticalAlign=middle;resizable=0;points=[];autosize=1;strokeColor=none;fillColor=none;fontColor=#FFFFFF;" parent="1" vertex="1"><mxGeometry x="100" y="205" width="80" height="30" as="geometry"/></mxCell><mxCell id="83" value="Contains" style="text;html=1;align=center;verticalAlign=middle;resizable=0;points=[];autosize=1;strokeColor=none;fillColor=none;fontColor=#FFFFFF;" parent="1" vertex="1"><mxGeometry x="180" y="400" width="60" height="20" as="geometry"/></mxCell><mxCell id="90" value="*" style="text;html=1;align=center;verticalAlign=middle;resizable=0;points=[];autosize=1;strokeColor=none;fillColor=none;" parent="1" vertex="1"><mxGeometry x="520" y="260" width="20" height="20" as="geometry"/></mxCell><mxCell id="91" value="Edit" style="text;html=1;align=center;verticalAlign=middle;resizable=0;points=[];autosize=1;strokeColor=none;fillColor=none;" parent="1" vertex="1"><mxGeometry x="540" y="360" width="40" height="20" as="geometry"/></mxCell><mxCell id="92" value="*" style="text;html=1;align=center;verticalAlign=middle;resizable=0;points=[];autosize=1;strokeColor=none;fillColor=none;" parent="1" vertex="1"><mxGeometry x="360" y="331" width="20" height="20" as="geometry"/></mxCell><mxCell id="94" value="1..*" style="text;html=1;align=center;verticalAlign=middle;resizable=0;points=[];autosize=1;strokeColor=none;fillColor=none;" parent="1" vertex="1"><mxGeometry x="710" y="160" width="30" height="20" as="geometry"/></mxCell><mxCell id="96" value="Offers" style="text;html=1;align=center;verticalAlign=middle;resizable=0;points=[];autosize=1;strokeColor=none;fillColor=none;" parent="1" vertex="1"><mxGeometry x="285" y="351" width="50" height="20" as="geometry"/></mxCell></root></mxGraphModel></diagram></mxfile>